# xmcd
#
# Track frame offsets: 
#        182
#        19252
#        38082
#        55347
#        76997
#        93085
#        111212
#        128225
#        147162
#        166297
#        181605
#        198600
#        216907
#        232545
#        248537
#        269052
#        283940
#        297230
#        315500
#        331055
#
# Disc length: 4626 seconds
#
# Revision: 4
# Processed by: cddbd v1.5.2PL0 Copyright (c) Steve Scherf et al.
# Submitted via: ExactAudioCopyFreeDBPlugin 1.0
#
DISCID=18121014
DTITLE=Various Artist - Smooth Grooves:  The Essential Collection [Rh
DTITLE=ino]
DYEAR=2000
DGENRE=SMB
TTITLE0=The Spinners - Could It Be I'm Falling in Love
TTITLE1=Bloodstone - Natural High
TTITLE2=The Chi-Lites - Oh Girl
TTITLE3=Billy Paul - Me and Mrs. Jones
TTITLE4=Lou Rawls - You'll Never Find Another Love Like Mine
TTITLE5=Peaches and Herb - Reunited
TTITLE6=Gladys Knight and The Pips - Best Thing That Ever Happened to Me
TTITLE7=Blue Magic - Sideshow
TTITLE8=The Floaters - Float On
TTITLE9=The Delfonics - Didn't I (Blow Your Mind This Time)
TTITLE10=Ashford and Simpson - Solid
TTITLE11=Marvin Gaye - Let's Get it On
TTITLE12=Luther Ingram - (If Loving You is Wrong) I Don't Want to Be R
TTITLE12=ight
TTITLE13=Bobby Caldwell - What You Won't Do for Love
TTITLE14=The Dramatics - In the Rain
TTITLE15=Al Green - Let's Stay Together
TTITLE16=The Stylistics - You Are Everything
TTITLE17=Kool and the Gang - Cherish
TTITLE18=Barry White - It's Ecstasy When You Lay Down Next to Me
TTITLE19=Heatwave - Always and Forever
EXTD=
EXTT0=
EXTT1=
EXTT2=
EXTT3=
EXTT4=
EXTT5=
EXTT6=
EXTT7=
EXTT8=
EXTT9=
EXTT10=
EXTT11=
EXTT12=
EXTT13=
EXTT14=
EXTT15=
EXTT16=
EXTT17=
EXTT18=
EXTT19=
PLAYORDER=
